<mxfile host="app.diagrams.net" modified="2024-01-02T18:31:12.305Z" agent="Mozilla/5.0 (Windows NT 10.0; Win64; x64) AppleWebKit/537.36 (KHTML, like Gecko) Chrome/120.0.0.0 Safari/537.36" etag="nwMKKjItHE3ZFtWBYQ9F" version="22.1.16" type="google">
  <diagram id="prtHgNgQTEPvFCAcTncT" name="Page Navigation">
    <mxGraphModel grid="0" page="1" gridSize="10" guides="1" tooltips="1" connect="1" arrows="1" fold="1" pageScale="1" pageWidth="827" pageHeight="1169" math="0" shadow="0">
      <root>
        <mxCell id="0" />
        <mxCell id="1" parent="0" />
        <mxCell id="ceBmEfh0zMLgKsjmU6NT-7" style="edgeStyle=orthogonalEdgeStyle;rounded=0;orthogonalLoop=1;jettySize=auto;html=1;exitX=0.5;exitY=1;exitDx=0;exitDy=0;" edge="1" parent="1" source="ceBmEfh0zMLgKsjmU6NT-1" target="ceBmEfh0zMLgKsjmU6NT-2">
          <mxGeometry relative="1" as="geometry" />
        </mxCell>
        <mxCell id="ceBmEfh0zMLgKsjmU6NT-8" style="edgeStyle=orthogonalEdgeStyle;rounded=0;orthogonalLoop=1;jettySize=auto;html=1;exitX=0.5;exitY=1;exitDx=0;exitDy=0;entryX=0.5;entryY=0;entryDx=0;entryDy=0;" edge="1" parent="1" source="ceBmEfh0zMLgKsjmU6NT-1" target="ceBmEfh0zMLgKsjmU6NT-3">
          <mxGeometry relative="1" as="geometry" />
        </mxCell>
        <mxCell id="ceBmEfh0zMLgKsjmU6NT-1" value="Home" style="rounded=0;whiteSpace=wrap;html=1;fillColor=#d5e8d4;strokeColor=#82b366;" vertex="1" parent="1">
          <mxGeometry x="360" y="120" width="120" height="60" as="geometry" />
        </mxCell>
        <mxCell id="ceBmEfh0zMLgKsjmU6NT-9" style="edgeStyle=orthogonalEdgeStyle;rounded=0;orthogonalLoop=1;jettySize=auto;html=1;exitX=1;exitY=0.5;exitDx=0;exitDy=0;entryX=0;entryY=0.5;entryDx=0;entryDy=0;" edge="1" parent="1" source="ceBmEfh0zMLgKsjmU6NT-2" target="ceBmEfh0zMLgKsjmU6NT-3">
          <mxGeometry relative="1" as="geometry" />
        </mxCell>
        <mxCell id="ceBmEfh0zMLgKsjmU6NT-2" value="Create Account" style="rounded=0;whiteSpace=wrap;html=1;fillColor=#d5e8d4;strokeColor=#82b366;" vertex="1" parent="1">
          <mxGeometry x="200" y="240" width="120" height="60" as="geometry" />
        </mxCell>
        <mxCell id="ceBmEfh0zMLgKsjmU6NT-10" style="edgeStyle=orthogonalEdgeStyle;rounded=0;orthogonalLoop=1;jettySize=auto;html=1;exitX=0.5;exitY=1;exitDx=0;exitDy=0;entryX=0.5;entryY=0;entryDx=0;entryDy=0;" edge="1" parent="1" source="ceBmEfh0zMLgKsjmU6NT-3" target="ceBmEfh0zMLgKsjmU6NT-4">
          <mxGeometry relative="1" as="geometry" />
        </mxCell>
        <mxCell id="ceBmEfh0zMLgKsjmU6NT-11" style="edgeStyle=orthogonalEdgeStyle;rounded=0;orthogonalLoop=1;jettySize=auto;html=1;entryX=0.5;entryY=0;entryDx=0;entryDy=0;" edge="1" parent="1" source="ceBmEfh0zMLgKsjmU6NT-3" target="ceBmEfh0zMLgKsjmU6NT-6">
          <mxGeometry relative="1" as="geometry">
            <Array as="points">
              <mxPoint x="590" y="320" />
              <mxPoint x="260" y="320" />
            </Array>
          </mxGeometry>
        </mxCell>
        <mxCell id="ceBmEfh0zMLgKsjmU6NT-3" value="Sign In" style="rounded=0;whiteSpace=wrap;html=1;fillColor=#d5e8d4;strokeColor=#82b366;" vertex="1" parent="1">
          <mxGeometry x="530" y="240" width="120" height="60" as="geometry" />
        </mxCell>
        <mxCell id="ceBmEfh0zMLgKsjmU6NT-12" style="edgeStyle=orthogonalEdgeStyle;rounded=0;orthogonalLoop=1;jettySize=auto;html=1;exitX=0.5;exitY=1;exitDx=0;exitDy=0;entryX=0.5;entryY=0;entryDx=0;entryDy=0;" edge="1" parent="1" source="ceBmEfh0zMLgKsjmU6NT-4" target="ceBmEfh0zMLgKsjmU6NT-5">
          <mxGeometry relative="1" as="geometry" />
        </mxCell>
        <mxCell id="ceBmEfh0zMLgKsjmU6NT-4" value="serviceDetails" style="rounded=0;whiteSpace=wrap;html=1;fillColor=#d5e8d4;strokeColor=#82b366;" vertex="1" parent="1">
          <mxGeometry x="530" y="350" width="120" height="60" as="geometry" />
        </mxCell>
        <mxCell id="ceBmEfh0zMLgKsjmU6NT-17" style="edgeStyle=orthogonalEdgeStyle;rounded=0;orthogonalLoop=1;jettySize=auto;html=1;exitX=0.5;exitY=1;exitDx=0;exitDy=0;entryX=0.5;entryY=0;entryDx=0;entryDy=0;" edge="1" parent="1" source="ceBmEfh0zMLgKsjmU6NT-5" target="ceBmEfh0zMLgKsjmU6NT-16">
          <mxGeometry relative="1" as="geometry" />
        </mxCell>
        <mxCell id="ceBmEfh0zMLgKsjmU6NT-5" value="createdService" style="rounded=0;whiteSpace=wrap;html=1;fillColor=#d5e8d4;strokeColor=#82b366;" vertex="1" parent="1">
          <mxGeometry x="530" y="440" width="120" height="60" as="geometry" />
        </mxCell>
        <mxCell id="ceBmEfh0zMLgKsjmU6NT-13" style="edgeStyle=orthogonalEdgeStyle;rounded=0;orthogonalLoop=1;jettySize=auto;html=1;exitX=0.5;exitY=1;exitDx=0;exitDy=0;entryX=0;entryY=0.5;entryDx=0;entryDy=0;" edge="1" parent="1" source="ceBmEfh0zMLgKsjmU6NT-6" target="ceBmEfh0zMLgKsjmU6NT-5">
          <mxGeometry relative="1" as="geometry" />
        </mxCell>
        <mxCell id="ceBmEfh0zMLgKsjmU6NT-15" style="edgeStyle=orthogonalEdgeStyle;rounded=0;orthogonalLoop=1;jettySize=auto;html=1;exitX=0.5;exitY=1;exitDx=0;exitDy=0;" edge="1" parent="1" source="ceBmEfh0zMLgKsjmU6NT-6" target="ceBmEfh0zMLgKsjmU6NT-14">
          <mxGeometry relative="1" as="geometry">
            <Array as="points">
              <mxPoint x="260" y="470" />
              <mxPoint x="170" y="470" />
            </Array>
          </mxGeometry>
        </mxCell>
        <mxCell id="ceBmEfh0zMLgKsjmU6NT-6" value="User Profile" style="rounded=0;whiteSpace=wrap;html=1;fillColor=#ffe6cc;strokeColor=#d79b00;" vertex="1" parent="1">
          <mxGeometry x="200" y="350" width="120" height="60" as="geometry" />
        </mxCell>
        <mxCell id="ceBmEfh0zMLgKsjmU6NT-14" value="Payment Method" style="rounded=0;whiteSpace=wrap;html=1;fillColor=#ffe6cc;strokeColor=#d79b00;" vertex="1" parent="1">
          <mxGeometry x="110" y="540" width="120" height="60" as="geometry" />
        </mxCell>
        <mxCell id="ceBmEfh0zMLgKsjmU6NT-21" style="edgeStyle=orthogonalEdgeStyle;rounded=0;orthogonalLoop=1;jettySize=auto;html=1;exitX=1;exitY=0.5;exitDx=0;exitDy=0;" edge="1" parent="1" source="ceBmEfh0zMLgKsjmU6NT-16" target="ceBmEfh0zMLgKsjmU6NT-18">
          <mxGeometry relative="1" as="geometry" />
        </mxCell>
        <mxCell id="ceBmEfh0zMLgKsjmU6NT-16" value="manageService" style="rounded=0;whiteSpace=wrap;html=1;fillColor=#d5e8d4;strokeColor=#82b366;" vertex="1" parent="1">
          <mxGeometry x="290" y="540" width="120" height="60" as="geometry" />
        </mxCell>
        <mxCell id="ceBmEfh0zMLgKsjmU6NT-22" style="edgeStyle=orthogonalEdgeStyle;rounded=0;orthogonalLoop=1;jettySize=auto;html=1;exitX=1;exitY=0.5;exitDx=0;exitDy=0;entryX=0;entryY=0.5;entryDx=0;entryDy=0;" edge="1" parent="1" source="ceBmEfh0zMLgKsjmU6NT-18" target="ceBmEfh0zMLgKsjmU6NT-20">
          <mxGeometry relative="1" as="geometry" />
        </mxCell>
        <mxCell id="ceBmEfh0zMLgKsjmU6NT-18" value="Proposal" style="rounded=0;whiteSpace=wrap;html=1;fillColor=#ffe6cc;strokeColor=#d79b00;" vertex="1" parent="1">
          <mxGeometry x="450" y="540" width="120" height="60" as="geometry" />
        </mxCell>
        <mxCell id="ceBmEfh0zMLgKsjmU6NT-20" value="Payment" style="rounded=0;whiteSpace=wrap;html=1;fillColor=#ffe6cc;strokeColor=#d79b00;" vertex="1" parent="1">
          <mxGeometry x="610" y="540" width="120" height="60" as="geometry" />
        </mxCell>
        <mxCell id="ceBmEfh0zMLgKsjmU6NT-23" value="&lt;b&gt;Samwise Service App&lt;br&gt;Page Navigation&lt;/b&gt;" style="text;html=1;strokeColor=none;fillColor=none;align=center;verticalAlign=middle;whiteSpace=wrap;rounded=0;" vertex="1" parent="1">
          <mxGeometry x="260" y="30" width="290" height="30" as="geometry" />
        </mxCell>
        <mxCell id="ohqSVOAJcJfT0wnph-nA-5" value="Key" style="rounded=0;whiteSpace=wrap;html=1;horizontal=1;verticalAlign=top;fontStyle=1" vertex="1" parent="1">
          <mxGeometry x="24" y="115" width="140" height="140" as="geometry" />
        </mxCell>
        <mxCell id="ohqSVOAJcJfT0wnph-nA-6" value="Will be realized in future Iterations" style="rounded=0;whiteSpace=wrap;html=1;fillColor=#ffe6cc;strokeColor=#d79b00;" vertex="1" parent="1">
          <mxGeometry x="34" y="202" width="120" height="40" as="geometry" />
        </mxCell>
        <mxCell id="ohqSVOAJcJfT0wnph-nA-7" value="Realized" style="rounded=0;whiteSpace=wrap;html=1;fillColor=#d5e8d4;strokeColor=#82b366;" vertex="1" parent="1">
          <mxGeometry x="34" y="155" width="120" height="40" as="geometry" />
        </mxCell>
      </root>
    </mxGraphModel>
  </diagram>
</mxfile>
